<?xml version="1.0" standalone="no"?>
<!DOCTYPE svg PUBLIC "-//W3C//DTD SVG 20010904//EN"
 "http://www.w3.org/TR/2001/REC-SVG-20010904/DTD/svg10.dtd">
<svg version="1.0" xmlns="http://www.w3.org/2000/svg"
 width="264.000000pt" height="264.000000pt" viewBox="0 0 264.000000 264.000000"
 preserveAspectRatio="xMidYMid meet">
<metadata>
Created by potrace 1.11, written by Peter Selinger 2001-2013
</metadata>
<g transform="translate(0.000000,264.000000) scale(0.100000,-0.100000)"
fill="#000000" stroke="none">
<path d="M1753 2620 c-180 -29 -240 -55 -328 -143 -80 -81 -129 -187 -137
-299 -1 -16 -5 -28 -8 -27 -3 0 -25 28 -50 62 -89 121 -201 177 -207 102 -3
-26 4 -35 53 -68 109 -76 187 -227 193 -375 l2 -63 -57 56 c-58 56 -186 128
-249 141 -71 14 -179 16 -237 5 -217 -42 -402 -230 -465 -471 -17 -66 -24
-248 -12 -305 15 -67 22 -92 40 -142 70 -195 151 -302 409 -534 144 -130 210
-189 325 -294 54 -50 110 -101 124 -113 61 -56 118 -107 142 -130 l27 -24 193
173 c168 149 327 291 363 324 6 6 49 43 96 84 190 166 292 288 352 421 21 46
50 122 53 140 1 3 4 14 8 25 14 44 19 84 22 180 7 195 -61 371 -195 506 -78
78 -150 122 -245 150 -51 14 -217 19 -268 7 -113 -27 -214 -84 -294 -167 l-48
-50 0 62 c0 34 -4 83 -8 109 l-8 47 48 6 c182 25 271 62 354 144 91 92 124
181 155 429 8 61 20 58 -143 32z m-817 -871 c34 -28 4 -65 -53 -67 -81 -3
-187 -59 -237 -125 -37 -48 -63 -114 -71 -177 -8 -67 -10 -70 -39 -70 -35 0
-46 20 -41 77 14 169 145 319 315 362 78 20 103 20 126 0z"/>
</g>
</svg>
