<?xml version="1.0" encoding="UTF-8" ?>
<!DOCTYPE svg PUBLIC "-//W3C//DTD SVG 1.1//EN" "http://www.w3.org/Graphics/SVG/1.1/DTD/svg11.dtd">
<svg width="127pt" height="154pt" viewBox="0 0 127 154" version="1.1" xmlns="http://www.w3.org/2000/svg">
<g id="#e3e6e8ff">
<path fill="#e3e6e8" opacity="1.00" d=" M 97.13 0.00 L 97.44 0.00 C 96.64 4.84 96.05 9.71 95.20 14.55 C 93.65 22.93 87.65 30.32 79.79 33.61 C 74.85 35.82 69.35 35.89 64.10 36.86 C 65.49 41.03 65.73 45.46 65.33 49.81 C 74.25 37.12 92.65 32.36 106.54 39.38 C 119.23 45.55 126.46 59.62 127.00 73.36 L 127.00 73.61 C 127.06 89.28 119.23 104.33 107.56 114.53 C 92.75 127.68 78.02 140.90 63.17 154.00 L 63.03 154.00 C 50.58 142.76 38.16 131.48 25.72 120.23 C 20.34 115.33 14.64 110.62 10.41 104.63 C 3.98 95.68 -0.05 84.80 0.00 73.71 L 0.00 73.51 C 0.49 62.34 5.06 51.02 13.77 43.76 C 20.41 38.06 29.42 35.33 38.11 36.33 C 46.82 37.14 54.91 41.88 60.35 48.67 C 61.00 37.94 55.92 26.47 46.36 21.06 C 44.25 19.79 45.79 16.20 48.19 16.59 C 53.95 18.97 58.01 24.02 61.09 29.25 C 61.33 20.43 65.18 11.49 72.65 6.45 C 79.72 1.25 88.85 1.50 97.13 0.00 M 33.50 51.73 C 22.93 54.12 14.80 64.18 14.73 75.02 C 14.58 76.37 15.75 77.95 17.21 77.68 C 19.17 77.87 19.64 75.49 19.53 74.00 C 19.97 65.19 27.18 57.30 35.91 56.08 C 37.82 55.55 40.60 56.43 41.50 54.08 C 41.69 49.71 36.16 51.30 33.50 51.73 Z" />
</g>
</svg>
