<?xml version="1.0" encoding="UTF-8" ?>
<!DOCTYPE svg PUBLIC "-//W3C//DTD SVG 1.1//EN" "http://www.w3.org/Graphics/SVG/1.1/DTD/svg11.dtd">
<svg width="127pt" height="154pt" viewBox="0 0 127 154" version="1.1" xmlns="http://www.w3.org/2000/svg">
<g id="#00c6a9ff">
<path fill="#00c6a9" opacity="1.00" d=" M 72.57 6.51 C 79.74 1.24 89.03 1.46 97.43 0.01 C 96.44 5.61 96.01 11.31 94.63 16.83 C 92.48 24.51 86.54 31.00 79.12 33.89 C 74.34 35.73 69.17 36.01 64.16 36.83 C 65.31 41.02 65.73 45.38 65.36 49.71 C 71.51 41.39 81.63 36.17 91.99 36.16 C 101.38 35.91 110.63 40.19 116.79 47.23 C 123.20 54.32 126.46 63.81 127.00 73.26 L 127.00 75.74 C 126.26 90.66 118.72 104.78 107.55 114.53 C 92.73 127.67 78.02 140.94 63.12 154.00 L 63.09 154.00 C 48.32 140.76 33.67 127.39 18.97 114.09 C 8.09 104.43 0.81 90.56 0.00 75.95 L 0.00 73.45 C 0.52 62.05 5.30 50.51 14.35 43.28 C 22.20 36.82 33.16 34.60 42.95 37.21 C 49.90 38.93 55.82 43.34 60.49 48.64 C 60.74 40.33 57.95 31.85 52.32 25.67 C 50.28 23.46 47.38 22.21 45.44 19.90 C 44.95 18.12 46.33 16.66 48.09 16.59 C 53.92 18.85 57.91 24.02 61.07 29.18 C 61.40 20.43 65.16 11.54 72.57 6.51 M 33.45 51.75 C 22.61 54.21 14.20 64.86 14.81 76.02 C 15.31 78.04 18.46 78.40 19.19 76.38 C 19.78 72.85 19.95 69.11 21.89 65.98 C 25.21 59.70 32.05 55.93 39.07 55.68 C 41.77 56.06 42.46 51.69 39.76 51.24 C 37.65 50.99 35.51 51.27 33.45 51.75 Z" />
</g>
</svg>
