<?xml version="1.0" encoding="UTF-8" ?>
<!DOCTYPE svg PUBLIC "-//W3C//DTD SVG 1.1//EN" "http://www.w3.org/Graphics/SVG/1.1/DTD/svg11.dtd">
<svg width="807pt" height="160pt" viewBox="0 0 807 160" version="1.1" xmlns="http://www.w3.org/2000/svg">
<g id="#00c6a9ff">
<path fill="#00c6a9" opacity="1.00" d=" M 72.51 9.56 C 79.69 4.24 89.01 4.48 97.42 2.99 C 96.59 8.08 96.04 13.23 95.01 18.29 C 93.30 26.38 87.39 33.42 79.78 36.62 C 74.85 38.71 69.43 38.97 64.21 39.83 C 65.27 44.00 65.68 48.32 65.40 52.62 C 75.22 39.03 95.78 34.81 109.82 44.24 C 122.44 52.42 128.52 68.47 126.59 83.10 C 125.33 92.16 121.61 100.83 116.19 108.17 C 111.15 115.07 104.29 120.28 98.04 126.00 C 86.39 136.36 74.77 146.74 63.11 157.08 C 48.23 143.57 33.29 130.12 18.43 116.59 C 7.88 107.03 0.89 93.44 0.00 79.16 L 0.00 76.18 C 0.61 64.86 5.37 53.43 14.38 46.26 C 22.22 39.81 33.19 37.59 42.97 40.22 C 49.93 41.92 55.81 46.39 60.53 51.63 C 60.65 43.79 58.30 35.78 53.22 29.72 C 51.04 27.02 47.90 25.39 45.45 22.98 C 45.48 22.45 45.53 21.38 45.56 20.85 C 47.59 18.47 50.20 20.44 52.14 21.81 C 55.93 24.43 58.58 28.28 61.05 32.10 C 61.46 23.40 65.13 14.57 72.51 9.56 M 33.53 54.72 C 22.68 57.15 14.18 67.82 14.82 79.00 C 15.27 81.41 19.41 81.25 19.28 78.68 C 19.59 71.68 23.14 64.76 29.41 61.34 C 32.73 59.21 36.75 59.19 40.47 58.37 C 40.74 58.04 41.27 57.38 41.53 57.06 C 41.69 52.75 36.20 54.27 33.53 54.72 Z" />
</g>
<g id="#000000ff">
<path fill="#000000" opacity="1.00" d=" M 462.52 46.56 C 471.39 37.94 483.60 32.60 496.00 32.33 C 500.53 32.12 505.84 33.99 507.37 38.67 C 509.51 45.54 507.04 52.81 503.82 58.92 C 502.24 61.89 499.97 65.52 496.05 65.05 C 491.77 65.24 489.34 60.94 488.16 57.43 C 493.54 53.77 498.81 49.21 500.74 42.76 C 496.03 40.07 490.39 41.42 485.44 42.58 C 478.49 44.55 471.00 47.83 467.50 54.56 C 465.21 58.87 466.58 64.05 469.03 67.97 C 474.13 76.33 482.71 82.88 484.67 92.91 C 486.33 100.53 482.12 107.83 477.25 113.33 C 470.33 120.80 460.35 126.15 449.98 125.67 C 441.42 124.76 432.58 120.57 428.21 112.85 C 423.67 103.38 428.94 91.19 438.00 86.61 C 442.39 87.76 446.03 90.74 449.06 94.03 C 445.20 96.79 440.19 98.61 437.93 103.08 C 435.87 107.33 438.08 112.86 442.53 114.48 C 449.54 116.97 457.88 116.34 464.12 112.15 C 469.99 108.24 473.08 100.12 470.34 93.46 C 466.35 84.30 456.40 78.90 453.90 68.90 C 451.92 60.51 456.66 52.24 462.52 46.56 Z" />
<path fill="#000000" opacity="1.00" d=" M 169.29 47.33 C 175.40 40.95 182.92 34.98 191.94 33.82 C 196.65 33.34 202.93 33.68 205.16 38.66 C 207.23 44.53 204.47 50.69 201.89 55.93 C 199.86 59.35 198.23 63.48 194.59 65.50 C 191.50 67.07 188.34 64.86 185.59 63.60 C 191.32 57.37 196.63 50.23 198.10 41.70 C 192.69 40.04 188.06 44.00 184.41 47.46 C 176.37 55.47 170.50 65.34 165.23 75.31 C 160.78 84.10 157.19 93.45 155.66 103.23 C 155.09 107.26 154.84 111.63 156.69 115.39 C 157.57 117.40 159.96 118.29 162.04 117.96 C 167.08 117.45 171.44 114.42 175.06 111.06 C 181.13 105.20 185.74 98.03 189.75 90.66 C 190.42 89.09 191.81 88.13 193.29 87.39 C 197.45 79.26 203.71 71.26 212.91 68.80 C 216.76 67.58 221.74 68.32 223.86 72.13 C 226.30 76.69 228.76 81.68 228.27 87.02 C 227.81 94.37 224.74 101.42 220.23 107.18 C 217.23 110.83 213.49 114.21 208.84 115.50 C 203.40 117.03 197.14 114.66 194.04 109.94 C 192.48 107.52 191.79 104.70 191.02 101.97 C 185.18 111.47 177.83 120.67 167.63 125.71 C 162.26 128.35 155.45 129.12 150.16 125.89 C 144.37 122.47 141.48 115.55 141.46 109.02 C 141.43 101.47 143.57 94.12 146.00 87.04 C 151.29 72.57 158.79 58.70 169.29 47.33 M 202.56 98.10 C 202.33 100.65 202.35 103.73 204.40 105.59 C 207.10 107.52 210.52 105.78 212.62 103.77 C 218.12 98.51 221.10 91.03 221.92 83.55 C 219.68 85.92 217.70 88.57 215.00 90.46 C 212.89 85.60 213.18 79.77 217.43 76.18 C 208.70 79.86 203.78 89.08 202.56 98.10 Z" />
<path fill="#000000" opacity="1.00" d=" M 315.37 42.46 C 317.85 41.35 321.07 42.38 322.23 44.89 C 325.15 50.31 319.68 58.84 313.35 56.58 C 307.61 53.65 309.93 44.44 315.37 42.46 Z" />
<path fill="#000000" opacity="1.00" d=" M 348.31 70.92 C 353.06 61.84 357.18 52.42 359.88 42.52 C 363.72 43.08 367.62 45.00 369.24 48.73 C 370.41 50.90 369.38 53.35 368.52 55.43 C 362.41 69.53 354.60 82.87 349.12 97.26 C 347.77 100.31 346.93 103.56 346.52 106.87 C 354.09 102.82 357.63 94.66 361.86 87.66 C 362.28 87.61 363.13 87.50 363.56 87.45 C 367.48 80.71 372.47 74.16 379.50 70.45 C 383.88 68.15 389.63 67.46 394.01 70.08 C 398.05 73.24 397.97 78.89 397.80 83.54 C 397.14 83.73 395.82 84.11 395.16 84.30 C 396.40 85.85 397.92 87.28 398.63 89.18 C 399.34 91.07 398.33 92.95 397.72 94.70 C 396.10 98.62 394.60 102.61 393.77 106.78 C 401.35 102.49 404.89 94.25 409.20 87.13 C 411.23 88.02 415.42 89.47 413.40 92.39 C 409.21 99.88 404.93 107.67 398.20 113.21 C 395.01 115.94 390.29 117.30 386.34 115.44 C 383.62 114.26 382.72 111.22 381.62 108.74 C 377.91 112.50 373.09 117.10 367.32 115.54 C 362.30 114.35 359.74 109.34 358.99 104.63 C 354.83 110.03 349.65 117.04 341.95 116.20 C 337.87 116.01 335.71 112.20 334.60 108.76 C 331.94 111.38 329.15 114.11 325.55 115.37 C 321.78 116.76 317.41 115.13 314.95 112.08 C 312.74 109.50 312.35 105.99 311.78 102.77 C 308.26 107.21 304.62 111.85 299.56 114.61 C 296.65 116.11 292.76 117.14 289.92 114.96 C 287.62 112.96 287.73 109.59 287.30 106.83 C 283.62 111.11 279.27 116.64 273.00 116.21 C 268.37 115.97 265.24 111.42 265.46 107.02 C 265.63 97.53 270.33 89.00 273.47 80.27 C 268.89 84.40 264.26 88.70 261.09 94.05 C 257.90 100.65 256.76 107.97 255.61 115.14 C 251.82 114.72 245.54 113.08 246.63 108.09 C 247.45 98.44 251.37 89.48 254.49 80.43 C 250.06 84.36 245.80 88.61 242.51 93.56 C 239.15 100.22 237.99 107.71 236.70 114.98 C 233.44 114.61 229.81 113.81 227.81 110.94 C 227.51 106.93 228.53 102.97 229.41 99.09 C 232.17 88.76 236.36 78.88 239.61 68.70 C 243.64 69.32 246.90 71.83 249.18 75.13 C 252.91 72.23 256.96 68.63 262.02 69.00 C 265.15 69.48 266.52 72.75 268.06 75.10 C 271.83 72.15 275.99 68.46 281.14 69.04 C 285.06 70.51 287.91 75.48 286.36 79.55 C 283.46 88.64 278.25 96.98 276.83 106.53 C 281.03 103.54 284.72 99.81 287.38 95.38 C 289.68 91.95 290.94 87.54 294.79 85.43 C 298.27 76.88 302.51 68.59 304.84 59.61 C 309.41 59.98 314.34 63.09 314.78 67.99 C 311.47 81.93 301.78 93.27 297.39 106.83 C 305.49 103.36 309.79 95.24 314.46 88.29 C 314.96 88.15 315.95 87.89 316.44 87.76 C 320.36 80.62 325.72 73.81 333.15 70.14 C 337.91 67.69 343.86 67.84 348.31 70.92 M 327.54 90.60 C 325.24 95.30 323.17 100.60 324.66 105.88 C 329.67 105.41 332.49 100.93 335.35 97.37 C 339.88 91.92 341.20 84.77 344.45 78.62 C 342.99 77.38 341.16 76.00 339.18 77.09 C 333.52 79.60 330.27 85.35 327.54 90.60 M 376.68 86.70 C 373.41 92.48 370.11 99.03 371.62 105.87 C 373.39 105.36 375.40 105.16 376.75 103.76 C 382.72 97.93 388.26 90.69 388.32 81.94 C 389.20 82.02 390.97 82.16 391.86 82.23 C 391.34 80.31 390.79 78.41 390.18 76.52 C 383.83 76.38 379.62 81.77 376.68 86.70 Z" />
<path fill="#000000" opacity="1.00" d=" M 542.17 87.58 C 548.33 72.50 556.64 58.27 561.02 42.48 C 565.96 42.69 571.32 46.81 570.89 52.07 C 564.05 70.59 552.32 87.31 548.11 106.78 C 555.75 102.65 559.26 94.36 563.53 87.29 C 564.04 87.29 565.05 87.29 565.56 87.30 C 567.66 81.00 569.62 74.65 571.90 68.41 C 577.31 68.75 583.35 74.23 580.91 79.93 C 577.28 88.73 572.72 97.31 571.09 106.78 C 576.63 103.81 580.16 98.45 583.19 93.14 C 587.45 86.01 589.18 77.78 592.09 70.09 C 592.58 67.84 595.19 68.75 596.69 69.34 C 600.30 71.19 603.78 75.67 601.74 79.83 C 598.17 88.71 593.57 97.31 591.81 106.80 C 597.18 103.93 600.69 98.78 603.64 93.63 C 605.36 90.84 606.52 87.37 609.69 85.88 C 614.07 79.64 618.87 73.15 626.04 69.95 C 630.74 67.67 636.51 67.93 640.83 70.93 C 645.51 61.84 649.69 52.47 652.36 42.58 C 656.10 43.03 659.88 44.86 661.58 48.39 C 662.92 50.53 662.01 53.06 661.12 55.17 C 654.96 69.48 647.02 82.97 641.50 97.56 C 640.20 100.50 639.40 103.63 639.07 106.83 C 646.59 102.83 650.05 94.71 654.26 87.79 C 654.71 87.69 655.62 87.49 656.07 87.39 C 659.93 80.78 664.79 74.39 671.62 70.66 C 675.79 68.31 681.07 67.61 685.55 69.51 C 690.08 72.05 690.85 78.12 690.18 82.79 C 689.63 83.28 688.53 84.27 687.98 84.76 C 689.72 86.71 692.13 89.06 691.14 91.94 C 689.54 96.88 687.21 101.58 686.27 106.72 C 693.73 102.65 697.19 94.57 701.38 87.65 C 701.95 87.62 703.08 87.58 703.65 87.55 C 709.68 72.50 717.78 58.27 722.26 42.61 C 727.85 42.73 734.35 48.60 731.39 54.39 C 728.88 60.33 726.07 66.15 723.16 71.90 C 727.37 69.79 732.42 67.76 737.05 69.90 C 741.42 71.60 743.10 76.63 743.00 80.97 C 742.90 89.70 738.61 97.79 733.35 104.53 C 729.13 109.62 723.69 114.21 717.09 115.66 C 713.96 116.47 710.93 115.04 708.06 113.98 C 704.54 115.75 700.37 113.81 698.13 110.90 C 697.94 108.82 698.30 106.74 698.46 104.67 C 695.64 108.41 692.65 112.22 688.59 114.67 C 685.44 116.56 681.18 117.00 678.00 114.95 C 675.82 113.58 675.16 110.93 674.16 108.73 C 670.34 112.58 665.27 117.36 659.37 115.40 C 654.59 114.03 652.22 109.15 651.45 104.60 C 648.66 108.40 645.63 112.22 641.55 114.69 C 638.39 116.59 634.16 116.96 630.97 114.97 C 628.77 113.63 628.14 110.95 627.14 108.77 C 623.29 112.55 618.28 117.32 612.39 115.43 C 607.44 114.05 605.05 108.93 604.41 104.22 C 601.49 108.28 598.35 112.48 593.80 114.82 C 591.04 116.17 587.54 116.92 584.76 115.24 C 582.18 113.61 581.84 110.33 581.03 107.66 C 577.31 112.40 571.59 117.59 565.08 115.76 C 560.53 113.89 560.52 108.07 560.52 103.92 C 557.51 108.62 553.81 113.41 548.42 115.45 C 545.64 116.55 541.95 116.67 539.83 114.24 C 537.41 111.41 537.56 107.43 537.60 103.94 C 534.92 108.03 531.68 111.90 527.53 114.55 C 524.43 116.53 520.20 117.01 516.97 115.10 C 514.64 113.78 513.93 111.03 512.96 108.74 C 510.00 111.54 506.96 114.69 502.86 115.68 C 498.04 116.74 493.02 113.45 491.42 108.92 C 489.10 102.83 490.83 96.13 493.43 90.43 C 496.96 82.88 502.12 75.78 509.27 71.30 C 513.87 68.38 520.16 67.20 525.10 69.95 C 529.30 73.05 529.19 78.84 529.16 83.54 C 528.48 83.73 527.12 84.12 526.44 84.32 C 528.10 86.46 530.89 88.81 529.96 91.85 C 528.33 96.83 526.05 101.60 525.02 106.77 C 532.44 102.67 535.99 94.63 540.11 87.66 C 540.62 87.64 541.65 87.60 542.17 87.58 M 509.40 84.41 C 505.36 90.70 501.52 97.97 502.71 105.70 C 504.51 105.41 506.53 105.29 507.89 103.88 C 513.94 98.02 519.48 90.68 519.64 81.88 C 520.80 82.06 521.97 82.24 523.15 82.42 C 522.62 80.50 522.47 78.33 521.07 76.80 C 515.86 76.09 512.11 80.64 509.40 84.41 M 631.23 77.25 C 625.99 79.91 622.80 85.23 620.20 90.29 C 617.82 95.05 615.77 100.38 617.00 105.79 C 618.97 105.37 621.14 105.08 622.58 103.49 C 625.89 100.17 628.88 96.44 631.14 92.33 C 633.12 87.78 634.76 83.09 636.91 78.62 C 635.46 77.00 633.26 76.09 631.23 77.25 M 668.97 87.03 C 666.03 92.55 662.56 98.79 664.09 105.26 C 665.88 105.86 667.73 105.28 669.03 103.96 C 675.11 98.11 680.73 90.74 680.82 81.92 C 681.71 82.01 683.49 82.20 684.38 82.29 C 683.64 80.38 683.86 76.60 680.98 76.71 C 675.27 77.19 671.76 82.61 668.97 87.03 M 727.45 78.64 C 721.09 80.90 715.53 85.92 713.32 92.38 C 712.03 95.95 709.67 99.87 711.27 103.71 C 712.15 105.86 714.95 105.50 716.60 104.51 C 721.60 101.67 725.00 96.76 727.95 91.95 C 729.98 88.26 732.17 84.34 732.26 80.02 C 732.51 77.23 729.11 78.37 727.45 78.64 Z" />
<path fill="#000000" opacity="1.00" d=" M 764.39 42.52 C 768.78 42.76 772.89 45.67 774.20 49.92 C 774.61 52.53 773.16 54.91 772.22 57.24 C 767.45 68.01 761.92 78.42 757.27 89.24 C 754.88 94.88 752.40 100.57 751.53 106.68 C 759.03 102.65 762.55 94.52 766.70 87.54 C 767.18 87.38 768.15 87.05 768.63 86.88 C 772.58 79.15 779.14 72.52 787.44 69.64 C 790.75 68.58 794.78 68.04 797.78 70.21 C 800.82 72.32 800.98 76.59 800.15 79.87 C 796.30 90.63 787.06 98.87 776.38 102.61 C 777.22 105.10 778.48 108.99 781.97 107.80 C 791.06 105.17 796.28 96.22 800.57 88.42 C 801.21 86.60 803.54 85.45 805.15 86.85 C 807.90 88.46 805.92 91.86 804.82 93.92 C 800.44 101.19 795.90 108.98 788.51 113.57 C 783.05 116.60 775.98 117.69 770.23 114.87 C 766.21 112.78 764.71 108.20 764.02 104.03 C 760.68 108.56 757.14 113.57 751.60 115.53 C 748.77 116.63 745.02 116.59 742.98 114.06 C 740.60 110.89 740.78 106.63 741.26 102.89 C 742.93 91.04 748.66 80.36 753.60 69.63 C 757.82 60.86 761.61 51.86 764.39 42.52 M 778.14 94.64 C 785.44 91.00 791.74 84.87 794.28 76.97 C 785.90 79.10 781.24 87.22 778.14 94.64 Z" />
</g>
</svg>
